<svg width="20" height="33" viewBox="0 0 20 33" fill="none" xmlns="http://www.w3.org/2000/svg">
<g id="Group 74">
<path id="Vector" d="M3.42317 6.54585L3.42317 21.2891C3.42317 21.6126 3.68552 21.875 4.0091 21.875L6.74348 21.875C7.06706 21.875 7.32942 21.6126 7.32942 21.2891L7.32942 6.54585L9.57839 6.54585C10.6224 6.54585 11.1453 5.28359 10.4071 4.54531L6.20495 0.34321C5.74729 -0.114455 5.00529 -0.114454 4.54768 0.34321L0.345577 4.54531C-0.392655 5.28354 0.130197 6.54585 1.17424 6.54585L3.42317 6.54585Z" fill="#6A6A6A"/>
<path id="Vector_2" d="M16.3293 26.3292L16.3293 11.5859C16.3293 11.2624 16.0669 11 15.7433 11L13.009 11C12.6854 11 12.423 11.2624 12.423 11.5859L12.423 26.3292L10.1741 26.3292C9.13001 26.3292 8.60716 27.5914 9.34539 28.3297L13.5475 32.5318C14.0052 32.9895 14.7471 32.9895 15.2048 32.5318L19.4069 28.3297C20.1451 27.5915 19.6222 26.3292 18.5782 26.3292L16.3293 26.3292Z" fill="#6A6A6A"/>
</g>
</svg>
