<svg width="223" height="27" viewBox="0 0 223 27" fill="none" xmlns="http://www.w3.org/2000/svg">
<g id="Group 76">
<path id="Vector" d="M12.4843 0.920357L9.07049 7.76129L1.43248 8.86183C0.0627601 9.05817 -0.486173 10.7271 0.507134 11.6829L6.03306 17.0048L4.72608 24.5226C4.49082 25.8815 5.93896 26.8994 7.15184 26.2638L13.9847 22.7142L20.8177 26.2638C22.0305 26.8942 23.4787 25.8815 23.2434 24.5226L21.9364 17.0048L27.4624 11.6829C28.4557 10.7271 27.9067 9.05817 26.537 8.86183L18.899 7.76129L15.4852 0.920357C14.8735 -0.299023 13.1012 -0.314524 12.4843 0.920357Z" fill="#FFC102"/>
<path id="Vector_2" d="M51.3742 0.920357L47.8681 7.76129L40.0237 8.86183C38.6169 9.05817 38.0532 10.7271 39.0733 11.6829L44.7486 17.0048L43.4063 24.5226C43.1647 25.8815 44.652 26.8994 45.8976 26.2638L52.9152 22.7142L59.9328 26.2638C61.1784 26.8942 62.6657 25.8815 62.4241 24.5226L61.0818 17.0048L66.7571 11.6829C67.7772 10.7271 67.2135 9.05817 65.8067 8.86183L57.9623 7.76129L54.4562 0.920357C53.828 -0.299023 52.0078 -0.314524 51.3742 0.920357Z" fill="#FFC102"/>
<path id="Vector_3" d="M90.3454 0.920357L86.9316 7.76129L79.2936 8.86183C77.9238 9.05817 77.3749 10.7271 78.3682 11.6829L83.8941 17.0048L82.5872 24.5226C82.3519 25.8815 83.8 26.8994 85.0129 26.2638L91.8458 22.7142L98.6787 26.2638C99.8916 26.8942 101.34 25.8815 101.105 24.5226L99.7975 17.0048L105.323 11.6829C106.317 10.7271 105.768 9.05817 104.398 8.86183L96.7601 7.76129L93.3462 0.920357C92.7346 -0.299023 90.9623 -0.314524 90.3454 0.920357Z" fill="#FFC102"/>
<path id="Vector_4" d="M129.654 0.920357L126.24 7.76129L118.602 8.86183C117.232 9.05817 116.683 10.7271 117.677 11.6829L123.202 17.0048L121.896 24.5226C121.66 25.8815 123.108 26.8994 124.321 26.2638L131.154 22.7142L137.987 26.2638C139.2 26.8942 140.648 25.8815 140.413 24.5226L139.106 17.0048L144.632 11.6829C145.625 10.7271 145.076 9.05817 143.706 8.86183L136.068 7.76129L132.655 0.920357C132.043 -0.299023 130.271 -0.314524 129.654 0.920357Z" fill="#FFC102"/>
<path id="Vector_5" d="M168.544 0.920357L165.038 7.76129L157.193 8.86183C155.786 9.05817 155.223 10.7271 156.243 11.6829L161.918 17.0048L160.576 24.5226C160.334 25.8815 161.821 26.8994 163.067 26.2638L170.085 22.7142L177.102 26.2638C178.348 26.8942 179.835 25.8815 179.594 24.5226L178.251 17.0048L183.927 11.6829C184.947 10.7271 184.383 9.05817 182.976 8.86183L175.132 7.76129L171.626 0.920357C170.997 -0.299023 169.177 -0.314524 168.544 0.920357Z" fill="#FFC102"/>
<path id="Vector_6" d="M207.515 0.920357L204.101 7.76129L196.463 8.86183C195.093 9.05817 194.544 10.7271 195.538 11.6829L201.064 17.0048L199.757 24.5226C199.521 25.8815 200.969 26.8994 202.182 26.2638L209.015 22.7142L215.848 26.2638C217.061 26.8942 218.509 25.8815 218.274 24.5226L216.967 17.0048L222.493 11.6829C223.486 10.7271 222.937 9.05817 221.568 8.86183L213.93 7.76129L210.516 0.920357C209.904 -0.299023 208.132 -0.314524 207.515 0.920357Z" fill="#FFE1B4"/>
</g>
</svg>
