<svg width="22" height="21" viewBox="0 0 22 21" fill="none" xmlns="http://www.w3.org/2000/svg">
<path id="Vector" d="M21.0938 17.1982H0.78125C0.57405 17.1982 0.375336 17.2737 0.228823 17.4081C0.08231 17.5425 0 17.7248 0 17.9148L0 19.348C0 19.538 0.08231 19.7203 0.228823 19.8547C0.375336 19.9891 0.57405 20.0646 0.78125 20.0646H21.0938C21.301 20.0646 21.4997 19.9891 21.6462 19.8547C21.7927 19.7203 21.875 19.538 21.875 19.348V17.9148C21.875 17.7248 21.7927 17.5425 21.6462 17.4081C21.4997 17.2737 21.301 17.1982 21.0938 17.1982ZM21.0938 11.4655H0.78125C0.57405 11.4655 0.375336 11.541 0.228823 11.6754C0.08231 11.8097 0 11.992 0 12.1821L0 13.6153C0 13.8053 0.08231 13.9876 0.228823 14.122C0.375336 14.2563 0.57405 14.3318 0.78125 14.3318H21.0938C21.301 14.3318 21.4997 14.2563 21.6462 14.122C21.7927 13.9876 21.875 13.8053 21.875 13.6153V12.1821C21.875 11.992 21.7927 11.8097 21.6462 11.6754C21.4997 11.541 21.301 11.4655 21.0938 11.4655ZM21.0938 5.73274H0.78125C0.57405 5.73274 0.375336 5.80824 0.228823 5.94262C0.08231 6.07701 0 6.25928 0 6.44933L0 7.88251C0 8.07257 0.08231 8.25483 0.228823 8.38922C0.375336 8.52361 0.57405 8.59911 0.78125 8.59911H21.0938C21.301 8.59911 21.4997 8.52361 21.6462 8.38922C21.7927 8.25483 21.875 8.07257 21.875 7.88251V6.44933C21.875 6.25928 21.7927 6.07701 21.6462 5.94262C21.4997 5.80824 21.301 5.73274 21.0938 5.73274ZM21.0938 0H0.78125C0.57405 0 0.375336 0.0754979 0.228823 0.209885C0.08231 0.344272 0 0.52654 0 0.716592L0 2.14978C0 2.33983 0.08231 2.5221 0.228823 2.65648C0.375336 2.79087 0.57405 2.86637 0.78125 2.86637H21.0938C21.301 2.86637 21.4997 2.79087 21.6462 2.65648C21.7927 2.5221 21.875 2.33983 21.875 2.14978V0.716592C21.875 0.52654 21.7927 0.344272 21.6462 0.209885C21.4997 0.0754979 21.301 0 21.0938 0Z" fill="#6A6A6A"/>
</svg>
