<svg width="32" height="34" viewBox="0 0 32 34" fill="none" xmlns="http://www.w3.org/2000/svg">
<path id="Vector" d="M16 16.9689C21.1583 16.9689 25.3333 13.1736 25.3333 8.48445C25.3333 3.79528 21.1583 0 16 0C10.8417 0 6.66667 3.79528 6.66667 8.48445C6.66667 13.1736 10.8417 16.9689 16 16.9689ZM22.4 19.393H21.7083C19.975 20.1506 18.05 20.6051 16 20.6051C13.95 20.6051 12.0333 20.1506 10.2917 19.393H9.6C4.3 19.393 0 23.3019 0 28.1199V30.3016C0 32.3091 1.79167 33.9378 4 33.9378H28C30.2083 33.9378 32 32.3091 32 30.3016V28.1199C32 23.3019 27.7 19.393 22.4 19.393Z" fill="#FA9370"/>
</svg>
