<svg width="41" height="36" viewBox="0 0 41 36" fill="none" xmlns="http://www.w3.org/2000/svg">
<path id="Vector" d="M37.1562 0H3.84375C1.72168 0 0 1.72768 0 3.85714V32.1429C0 34.2723 1.72168 36 3.84375 36H37.1562C39.2783 36 41 34.2723 41 32.1429V3.85714C41 1.72768 39.2783 0 37.1562 0ZM30.4617 23.3438C30.8461 23.7295 30.8461 24.3562 30.4617 24.742L27.2186 27.9964C26.8342 28.3821 26.2096 28.3821 25.8252 27.9964L20.5 22.6045L15.1748 27.9964C14.7904 28.3821 14.1658 28.3821 13.7814 27.9964L10.5383 24.742C10.1539 24.3562 10.1539 23.7295 10.5383 23.3438L15.9115 18L10.5383 12.6562C10.1539 12.2705 10.1539 11.6438 10.5383 11.258L13.7814 8.00357C14.1658 7.61786 14.7904 7.61786 15.1748 8.00357L20.5 13.3955L25.8252 8.00357C26.2096 7.61786 26.8342 7.61786 27.2186 8.00357L30.4617 11.258C30.8461 11.6438 30.8461 12.2705 30.4617 12.6562L25.0885 18L30.4617 23.3438Z" fill="#FF8258"/>
</svg>
