<svg width="37" height="31" viewBox="0 0 37 31" fill="none" xmlns="http://www.w3.org/2000/svg">
<path id="Vector" d="M33.9244 18.1858L36.961 5.8891C37.1803 5.00126 36.447 4.1558 35.4577 4.1558H10.2269L9.63812 1.50668C9.4914 0.846385 8.86009 0.372192 8.12773 0.372192H1.54167C0.690217 0.372192 0 1.00742 0 1.79104V2.73695C0 3.52057 0.690217 4.1558 1.54167 4.1558H6.03068L10.5431 24.4593C9.46359 25.0307 8.73611 26.102 8.73611 27.3304C8.73611 29.1588 10.3466 30.641 12.3333 30.641C14.32 30.641 15.9306 29.1588 15.9306 27.3304C15.9306 26.4038 15.5164 25.5666 14.8499 24.9656H28.3168C27.6502 25.5666 27.2361 26.4038 27.2361 27.3304C27.2361 29.1588 28.8466 30.641 30.8333 30.641C32.82 30.641 34.4306 29.1588 34.4306 27.3304C34.4306 26.0196 33.6027 24.8869 32.4021 24.3505L32.7564 22.9153C32.9757 22.0275 32.2424 21.182 31.2531 21.182H14.011L13.5906 19.2902H32.4211C33.1409 19.2902 33.7649 18.8318 33.9244 18.1858Z" fill="#FA9370"/>
</svg>
