<svg width="16" height="15" viewBox="0 0 16 15" fill="none" xmlns="http://www.w3.org/2000/svg">
<path id="Vector" d="M14.8571 5.7655H9.71429V1.04827C9.71429 0.469429 9.2025 0 8.57143 0H7.42857C6.7975 0 6.28571 0.469429 6.28571 1.04827V5.7655H1.14286C0.511786 5.7655 0 6.23492 0 6.81377V7.86204C0 8.44088 0.511786 8.91031 1.14286 8.91031H6.28571V13.6275C6.28571 14.2064 6.7975 14.6758 7.42857 14.6758H8.57143C9.2025 14.6758 9.71429 14.2064 9.71429 13.6275V8.91031H14.8571C15.4882 8.91031 16 8.44088 16 7.86204V6.81377C16 6.23492 15.4882 5.7655 14.8571 5.7655Z" fill="#6A6A6A"/>
</svg>
