<svg width="12" height="13" viewBox="0 0 12 13" fill="none" xmlns="http://www.w3.org/2000/svg">
<path id="Vector" d="M9.42857 4.0625V3.25C9.42857 1.45793 7.89051 0 6 0C4.10946 0 2.57143 1.45793 2.57143 3.25V4.0625H0V10.9688C0 12.0906 0.959384 13 2.14286 13H9.85714C11.0406 13 12 12.0906 12 10.9688V4.0625H9.42857ZM4.28571 3.25C4.28571 2.35396 5.05473 1.625 6 1.625C6.94527 1.625 7.71429 2.35396 7.71429 3.25V4.0625H4.28571V3.25ZM8.57143 6.29688C8.21638 6.29688 7.92857 6.02405 7.92857 5.6875C7.92857 5.35095 8.21638 5.07812 8.57143 5.07812C8.92647 5.07812 9.21429 5.35095 9.21429 5.6875C9.21429 6.02405 8.92647 6.29688 8.57143 6.29688ZM3.42857 6.29688C3.07353 6.29688 2.78571 6.02405 2.78571 5.6875C2.78571 5.35095 3.07353 5.07812 3.42857 5.07812C3.78362 5.07812 4.07143 5.35095 4.07143 5.6875C4.07143 6.02405 3.78362 6.29688 3.42857 6.29688Z" fill="white"/>
</svg>
