<svg width="25" height="29" viewBox="0 0 25 29" fill="none" xmlns="http://www.w3.org/2000/svg">
<path id="Vector" d="M24.66 25.0724L19.7915 19.4258C19.5717 19.171 19.2739 19.0294 18.9613 19.0294H18.1654C19.5131 17.0302 20.314 14.5156 20.314 11.7801C20.314 5.27273 15.7678 0 10.157 0C4.54623 0 0 5.27273 0 11.7801C0 18.2875 4.54623 23.5602 10.157 23.5602C12.5156 23.5602 14.6837 22.6314 16.4074 21.0683V21.9914C16.4074 22.3539 16.5295 22.6993 16.7493 22.9542L21.6178 28.6007C22.0768 29.1331 22.8191 29.1331 23.2732 28.6007L24.6551 26.9979C25.1141 26.4656 25.1141 25.6047 24.66 25.0724ZM10.157 19.0294C6.70459 19.0294 3.90654 15.7899 3.90654 11.7801C3.90654 7.776 6.69971 4.53081 10.157 4.53081C13.6094 4.53081 16.4074 7.77033 16.4074 11.7801C16.4074 15.7842 13.6143 19.0294 10.157 19.0294Z" fill="white"/>
</svg>
